<?xml version="1.0" encoding="UTF-8" standalone="no"?>
<!-- Created with Inkscape (http://www.inkscape.org/) -->

<svg
   width="135.49687mm"
   height="130.56514mm"
   viewBox="0 0 135.49687 130.56514"
   version="1.1"
   id="svg1"
   xml:space="preserve"
   xmlns:xlink="http://www.w3.org/1999/xlink"
   xmlns="http://www.w3.org/2000/svg"
   xmlns:svg="http://www.w3.org/2000/svg"><defs
     id="defs1"><linearGradient
       id="linearGradient17"><stop
         style="stop-color:#215f34;stop-opacity:0.99607843;"
         offset="0"
         id="stop17" /><stop
         style="stop-color:#538c30;stop-opacity:1;"
         offset="1"
         id="stop18" /></linearGradient><linearGradient
       xlink:href="#linearGradient17"
       id="linearGradient32"
       gradientUnits="userSpaceOnUse"
       gradientTransform="translate(-20.105932,100.52966)"
       x1="38.079945"
       y1="122.64609"
       x2="173.5768"
       y2="122.64609" /></defs><g
     id="layer1"
     transform="translate(-17.974013,-143.73783)"><path
       style="opacity:1;fill:#215d34;fill-opacity:1;stroke-width:0.7"
       d="m 66.904638,180.90281 c 0,0 11.83366,4.40671 21.36043,0.96544 5.68669,-2.05415 15.240482,-4.05868 20.757032,-3.01701 3.20489,0.60517 8.20881,1.40207 14.60233,9.65443 1.15224,1.48725 1.32748,4.22382 1.32748,4.22382 0,0 -4.48856,1.42286 -5.06858,1.08612 -0.65132,-0.37814 -2.12694,-5.4607 -6.7581,-4.46517 -4.51592,0.97075 -11.34395,3.37905 -11.34395,3.37905 0,0 -4.905572,1.69512 -3.258382,6.27538 0.66997,1.86293 2.486852,5.83909 3.137692,7.24082 0.35118,0.75634 -34.03187,11.82668 -34.03187,11.82668 l -3.861773,-9.77511 2.654969,-15.68845 z"
       id="path18" /><path
       id="path19"
       style="opacity:1;fill:#538c30;fill-opacity:1;stroke-width:0.7"
       d="m 56.243413,179.10729 c -7.181894,-0.10227 -15.946497,2.05835 -22.276677,11.10992 -12.66036,18.10313 4.614706,39.99239 4.614706,39.99239 l 2.407605,-0.0827 c -0.01592,-0.0201 -6.175517,-7.79363 4.100008,-9.38289 0.234871,-0.0363 -3.546513,-5.99372 0.12144,-7.88686 3.667956,-1.89314 10.158237,-4.57214 13.232784,-5.48339 4.462452,-1.3226 6.653342,4.4725 6.76031,3.668 1.253777,-9.42961 15.831649,-21.16448 19.404499,-22.59966 0.61025,-0.24513 -15.583543,-6.86728 -15.583543,-6.86728 0,0 -5.599239,-2.36527 -12.781132,-2.46755 z m -2.71663,5.65496 c 4.493902,-0.18051 8.029484,0.86506 8.029484,0.86506 0,0 -10.601632,-1.16649 -19.618958,9.61026 -6.935032,8.28817 -5.726265,21.71031 -5.726265,21.71031 0,0 -6.591124,-12.73973 3.535185,-25.69352 3.834132,-4.90471 9.286652,-6.31161 13.780554,-6.49211 z" /><path
       style="opacity:1;fill:#215f35;fill-opacity:0.996078;stroke-width:0.7"
       d="m 76.693663,176.62137 c 0,0 -8.99227,1.62517 -17.093774,-4.98161 -6.385673,-5.20753 -7.52126,-11.42841 -7.52126,-11.42841 0,0 8.013793,-4.80828 16.316484,-0.70577 8.302689,4.1025 8.591586,13.30632 8.591586,13.30632 0,0 -4.452344,-4.03787 -7.130547,-5.9584 -2.563641,-1.83838 -7.228223,-3.51643 -7.228223,-3.51643 0,0 1.394439,0.82622 3.654119,2.70051 1.002504,0.83152 3.564662,2.78368 5.413623,4.70255 1.698685,1.76292 4.997992,5.88124 4.997992,5.88124 z"
       id="path20" /><path
       id="path21"
       style="opacity:1;fill:#548d30;fill-opacity:0.996078;stroke-width:0.7"
       d="m 106.70132,143.73788 c 0,0 -16.698892,3.75744 -23.587192,12.94184 -4.190333,5.5871 -3.05067,12.83527 -1.51516,17.65577 2.14082,-4.24224 6.06649,-11.47272 9.65626,-15.15101 5.9989,-6.14684 8.34936,-7.51427 8.34936,-7.51427 0,0 -9.05934,11.77341 -10.85638,14.54574 -3.04041,4.69051 -3.43678,4.78746 -4.90338,13.21587 -0.005,0.0261 -0.009,0.0522 -0.0134,0.078 1.09901,-0.32884 11.95747,-3.78579 20.469552,-14.37638 5.87617,-7.31104 2.40037,-21.3956 2.40037,-21.3956 z" /><path
       style="opacity:1;fill:#215f35;fill-opacity:1;stroke-width:0.7"
       d="m 68.592579,221.15439 3.867859,10.16132 33.565142,-12.12803 -3.86786,-10.09576 z"
       id="path22" /><path
       style="opacity:1;fill:#216034;fill-opacity:0.996078;stroke-width:0.7"
       d="M 54.396369,213.30119 66.4292,243.44374 c 0,0 0.750266,2.02796 4.624206,-0.20866 2.984081,-1.72286 2.193715,-3.52808 2.193715,-3.52808 L 62.036886,211.32085 c 0,0 -0.677849,-2.31928 -4.195643,-1.37669 -1.091682,0.29252 -2.179569,0.95345 -2.927676,1.47818 -1.036927,0.7273 -0.517198,1.87885 -0.517198,1.87885 z"
       id="path23" /><path
       style="opacity:1;fill:#215f34;fill-opacity:1;stroke-width:0.7"
       d="m 52.585234,214.62281 c 0,0 -0.605041,-2.46338 -2.85233,-1.5126 -2.247288,0.95078 -2.938761,1.38295 -2.938761,1.38295 0,0 -1.037212,1.03721 -0.432173,2.63624 0.605041,1.59903 11.150012,27.22677 11.150012,27.22677 0,0 1.771898,2.2905 3.630237,1.33973 1.096751,-0.56112 2.012866,-1.01688 2.579549,-1.2962 0.606113,-0.29875 0.339223,-1.00312 0.339223,-1.00312 z"
       id="path24" /><path
       style="opacity:1;fill:#215f34;fill-opacity:1;stroke-width:0.7"
       d="m 46.601456,224.04589 c 0,0 6.037178,14.02613 7.328053,17.09334 0,0 0.698453,1.2892 -1.326798,2.22739 -1.382315,0.64035 -3.021259,1.04128 -3.905248,-0.71922 -1.699752,-3.38512 -1.777042,-3.50852 -1.777042,-3.50852 0,0 -0.267125,-0.89912 -1.321388,-0.36452 -1.974664,1.00133 -3.148214,1.29791 -3.860869,0.23572 -1.376889,-2.0522 -2.153734,-3.92653 -2.153734,-3.92653 0,0 -1.128503,-2.28149 0.574949,-3.14896 2.583344,-1.31555 3.451888,-1.37935 3.149787,-2.09783 -0.285328,-0.67858 -1.537608,-4.00293 -1.537608,-4.00293 0,0 -0.59235,-1.41253 1.139129,-2.05044 0.949584,-0.34985 1.830646,-0.56265 2.432737,-0.6835 0.895862,-0.17981 1.258032,0.946 1.258032,0.946 z"
       id="path25" /><path
       style="opacity:1;fill:url(#linearGradient32);stroke-width:0.7"
       d="m 24.847117,216.82433 c 0,0 -7.656022,20.46459 5.334616,33.00351 5.490072,5.29917 13.633401,7.34297 20.061877,8.17147 6.485496,0.83584 17.834502,0.51082 27.845572,-1.92236 6.203516,-1.50776 16.039296,-5.10635 25.871268,-10.14231 7.74271,-3.96584 17.9527,-11.64395 24.02095,-17.92203 12.56083,-12.99517 14.85344,-25.09917 14.58296,-31.2896 -0.42784,-9.7919 -3.93026,-17.42601 -16.44883,-22.19161 -1.85061,-0.70449 -5.08863,-1.30312 -6.18274,-1.38759 -1.18684,-0.0916 -3.43986,-0.34723 -3.43986,-0.34723 0,0 1.09611,-0.51858 4.02814,-0.68066 2.20007,-0.12161 14.49552,-0.6203 21.28097,4.88294 7.43488,6.02995 12.58115,13.03935 11.53346,26.13297 -0.60657,7.58073 -2.44967,13.70482 -7.05035,22.80884 -6.32105,12.50838 -15.90758,17.7227 -20.93656,22.10143 -2.21294,1.92681 -17.17544,10.06456 -26.445462,13.97435 -9.82097,4.14216 -24.502077,6.34443 -28.372586,6.84952 -2.14733,0.28022 -5.78609,0.65839 -7.366981,0.8348 -1.636033,0.18257 -3.250223,0.1141 -3.250223,0.1141 1.999562,0.47386 5.872858,0.53734 8.863904,0.64479 3.374883,0.12124 12.686616,-0.90173 20.838846,-3.17324 5.28099,-1.47147 14.568662,-5.23631 18.883962,-7.40223 9.56917,-4.80292 18.48722,-10.98102 18.48722,-10.98102 0,0 -4.19656,9.67344 -12.23406,16.64401 -8.03749,6.97057 -12.96378,8.48696 -19.837282,8.41457 -4.34266,-0.0457 -9.53436,-1.91391 -11.24576,-1.87077 -2.17656,0.0549 -8.183848,2.07447 -10.526976,2.13384 -1.069121,0.0271 -7.839285,0.39274 -16.431563,-0.7296 -6.630312,-0.86607 -17.463881,-3.56276 -21.387496,-5.98629 -3.850726,-2.37851 -13.871005,-7.60732 -16.088151,-18.4525 -0.821786,-4.01977 -1.81646,-9.99191 -0.88863,-15.40351 1.589691,-9.27193 6.499765,-16.82859 6.499765,-16.82859 z"
       id="path32" /><path
       style="opacity:1;fill:#215f35;fill-opacity:1;stroke-width:0.7"
       d="m 107.69643,194.94078 11.87642,30.20451 c 0,0 0.84224,1.99153 -3.51234,3.01501 -3.35432,0.78839 -4.01479,-1.06831 -4.01479,-1.06831 l -11.27287,-28.36132 c 0,0 -1.094527,-2.15419 2.11429,-3.87666 0.9958,-0.53453 2.24114,-0.79802 3.14563,-0.92804 1.25367,-0.18023 1.66366,1.01481 1.66366,1.01481 z"
       id="path33" /><path
       style="opacity:1;fill:#215f35;fill-opacity:1;stroke-width:0.7"
       d="m 109.92127,194.66336 c 0,0 -1.24627,-2.20933 1.04239,-3.05568 2.28867,-0.84635 3.0885,-1.00503 3.0885,-1.00503 0,0 1.46614,0.0453 2.12042,1.62492 0.65429,1.57952 10.52273,27.4753 10.52273,27.4753 0,0 0.27763,2.88252 -1.72762,3.46249 -1.18345,0.34228 -2.16312,0.63762 -2.76734,0.82221 -0.64626,0.19743 -0.93419,-0.4986 -0.93419,-0.4986 z"
       id="path34" /><path
       style="opacity:1;fill:#215f35;fill-opacity:1;stroke-width:0.7"
       d="m 120.73508,197.4313 c 0,0 5.20728,14.35493 6.36737,17.47396 0,0 0.37402,1.41774 2.49228,0.71428 1.44578,-0.48013 2.9146,-1.31048 2.35298,-3.1987 -1.07989,-3.63071 -1.10808,-3.77356 -1.10808,-3.77356 0,0 -0.42117,-0.83809 0.71317,-1.17061 2.12463,-0.62279 3.18286,-1.21043 2.97467,-2.47248 -0.40225,-2.43836 -1.1199,-4.33613 -1.1199,-4.33613 0,0 -0.74028,-2.43531 -2.57561,-1.90073 -2.78336,0.81072 -3.45993,1.35909 -3.73187,0.62866 -0.25685,-0.68986 -1.62117,-3.96983 -1.62117,-3.96983 0,0 -0.53581,-1.43493 -2.23434,-0.71388 -0.93152,0.39543 -1.71925,0.8438 -2.24073,1.16811 -0.77593,0.48255 -0.26877,1.55091 -0.26877,1.55091 z"
       id="path35" /></g></svg>
